<svg width="117.69mm" height="100.12mm" version="1.1" viewBox="0 0 117.69 100.12" xml:space="preserve" xmlns="http://www.w3.org/2000/svg"><g transform="translate(-40.171 -21.331)"><g fill="#282a36" stroke="#fff"><path transform="matrix(0 -2.2733 -2.2733 0 2651.9 79.083)" d="m6.3798 1133.8c.10972.2429.21945.4859.32918.7288.35041.7757.55623 1.2506.88965 2.1697.30233.8333.3645 2.0116.26652 2.8184-.085128.701-.33199 1.3666-.68003 2.0352-.27885.5357-.55995 1.3211-.58306 1.9585-.078883 2.1188 2.5859 3.1172 3.9187 1.4681.32181-.3982.59214-.8974.72589-1.1823.15058-.3208.31041-.6987.3917-.8772.06563-.144.17302-.451.32505-.8866.331-.9484.49902-1.5214.59637-2.7091.0713-.8698.01017-1.947-.16292-2.675-.10364-.4359-.22456-.8221-.35101-1.2161-.0235-.073-.047-.1464-.07051-.2196-.07647.01-.15294.016-.2294.024-1.2979.1382-3.2209-.3605-4.6514-1.0785-.23822-.1195-.47644-.2391-.71465-.3587" stroke-width="3.0792" style="paint-order:stroke fill markers"/><path transform="rotate(-90)" d="m-24.831 99.188a26.542 26.542 0 00-26.542-26.542 26.542 26.542 0 00-20.793 10.213 18.147 18.147 0 00-1.4206-.62374c.79901-1.1623 2.2029-2.7115 3.6639-4.0985 1.4154-1.3435 2.8794-3.2218 3.6701-5.4844.70647-2.0215 1.0388-3.9835.97772-6.042-.03664-1.2351-.21495-2.5049-.53899-3.8437-.56036-2.3151-1.4411-4.4026-2.2464-5.9381-.78291-1.493-2.0293-3.0765-3.4995-4.6116-1.5785-1.6484-2.8814-2.6879-4.2468-3.5972-1.2055-.8028-2.9611-1.9639-5.3351-2.9802-2.721-1.1652-5.7091-1.5983-7.691-1.7932-1.7021-.16707-3.2832-.19967-4.9511-.16278-1.6625.03688-2.7076-.03497-4.3873.22996-6.056.95208-5.1096 9.9422 1.0118 9.6113 2.595-.14103 3.6054-.04781 5.008.07803 1.8035.16056 4.3169.34238 6.1237 1.0113 1.4951.5535 3.2316 1.3805 4.9971 2.683 2.4318 1.7944 3.9388 3.7262 4.885 6.7458.54228 1.7304.70248 3.1365.49764 4.5377-.20508 1.403-.68942 3.079-1.2774 4.1682-1.112-1.3928-2.6874-3.0886-4.499-4.4054-1.9611-1.4257-3.9082-2.6154-6.752-3.3362-2.6797-.67935-5.5539-.91696-8.0119-.61753-2.7919.34022-5.5417 1.4985-7.6977 2.619-.79949.41536-1.6773.97872-2.56 1.6128a10.062 10.062 0 016.5996 7.783c1.3816-.79188 2.8818-1.3148 4.1563-1.5617 1.3781-.26688 2.585-.37255 4.2121 0 1.2856.29053 2.2847.66492 2.9037.9958 1.0508.56153 2.6642 1.7987 3.4329 3.0262.53989.86241.96904 1.7214 1.1855 2.4877a18.147 18.147 0 00-14.437 17.717 18.147 18.147 0 0014.456 17.764c-.22951.72616-.63468 1.5262-1.1379 2.3301-.76863 1.2274-2.382 2.4646-3.4329 3.0262-.61904.33088-1.6181.70528-2.9037.99581-1.6271.37255-2.8341.26688-4.2121 0-1.2746-.24683-2.7747-.76978-4.1563-1.5617a10.062 10.062 0 01-6.5996 7.783c.88272.6341 1.7606 1.1975 2.56 1.6128 2.156 1.1205 4.9058 2.2788 7.6977 2.619 2.458.29943 5.3322.0618 8.0119-.61753 2.8439-.72079 4.7909-1.9105 6.752-3.3362 1.8116-1.3168 3.387-3.0127 4.499-4.4054.58803 1.0892 1.0724 2.7653 1.2774 4.1682.20484 1.4012.04464 2.8073-.49764 4.5377-.94622 3.0196-2.4532 4.9515-4.885 6.7458-1.7655 1.3025-3.502 2.1295-4.9971 2.683-1.8068.66893-4.3201.85074-6.1237 1.0113-1.4025.1258-2.4129.21906-5.008.078-6.1214-.33088-7.0678 8.6592-1.0118 9.6113 1.6797.26496 2.7248.19306 4.3873.22996 1.668.0369 3.2491.004 4.9511-.16278 1.9819-.19485 4.97-.62802 7.691-1.7932 2.374-1.0163 4.1296-2.1774 5.3351-2.9802 1.3653-.90934 2.6682-1.9488 4.2468-3.5972 1.4702-1.5351 2.7166-3.1186 3.4995-4.6116.80529-1.5355 1.686-3.623 2.2464-5.9381.32404-1.3388.50238-2.6086.53898-3.8437.06106-2.0585-.27126-4.0205-.97772-6.042-.79069-2.2626-2.2546-4.1409-3.6701-5.4844-1.4219-1.3498-2.7823-2.8492-3.592-4.0008a18.147 18.147 0 001.1601-.5178 26.542 26.542 0 0020.916 10.355 26.542 26.542 0 0026.542-26.542zm-51.144-7.0337a3.0998 3.0998 0 01-3.0996 3.1001 3.0998 3.0998 0 01-3.1001-3.1001 3.0998 3.0998 0 013.1001-3.0996 3.0998 3.0998 0 013.0996 3.0996zm-.0279 14.003a3.0998 3.0998 0 01-3.0996 3.0996 3.0998 3.0998 0 01-3.0996-3.0996 3.0998 3.0998 0 013.0996-3.1001 3.0998 3.0998 0 013.0996 3.1001z" stroke-width="7" style="paint-order:stroke fill markers"/><path transform="matrix(0 -2.1697 2.1697 0 -2336.4 79.455)" d="m6.7574 1133.9c.11496.2545.22992.5091.34489.7636.36713.8127.58278 1.3103.93211 2.2733.31676.8731.3819 2.1076.27924 2.9529-.089191.7345-.34784 1.4318-.71248 2.1323-.29216.5613-.58668 1.3842-.61088 2.052-.082648 2.2199 2.7094 3.266 4.1057 1.5382.33717-.4172.62041-.9402.76053-1.2387.15776-.3362.32523-.7321.4104-.9191.06876-.1509.18128-.4725.34056-.9289.3468-.9937.52284-1.594.62483-2.8384.0747-.9113.01065-2.04-.1707-2.8027-.10858-.4567-.23528-.8613-.36777-1.2741-.02462-.076-.04924-.1534-.07387-.2301-.08012.01-.16024.017-.24036.025-1.3598.1448-3.3746-.3777-4.8734-1.13-.24959-.1252-.49918-.2505-.74876-.3758" stroke-width="3.2262" style="paint-order:stroke fill markers"/></g><path transform="rotate(-90)" d="m-100.85 119.49a9.0411 9.0411 0 00-5.7728-8.4057l-.0326-24.067a9.0411 9.0411 0 005.7893-8.4326 9.0411 9.0411 0 00-9.0413-9.0413 9.0411 9.0411 0 00-9.0408 9.0413 9.0411 9.0411 0 005.9619 8.4765l.0331 23.946a9.0411 9.0411 0 00-5.979 8.4822 9.0411 9.0411 0 009.0413 9.0413 9.0411 9.0411 0 009.0408-9.0413z" fill="#8564ff" stroke="#fff" stroke-width="5" style="paint-order:stroke fill markers"/><g fill="#282a36"><g><path d="m88.559 75.738c3.3283 1.4929 6.934 2.2717 10.582 2.2717 3.6478-1e-6 7.2535-.77879 10.582-2.2717z" stroke="#fff" stroke-width="5" style="paint-order:stroke fill markers"/><path transform="matrix(0 -2.2733 -2.2733 0 2651.9 79.083)" d="m6.3798 1133.8c.10972.2429.21945.4859.32918.7288.35041.7757.55623 1.2506.88965 2.1697.30233.8333.3645 2.0116.26652 2.8184-.085128.701-.33199 1.3666-.68003 2.0352-.27885.5357-.55995 1.3211-.58306 1.9585-.078883 2.1188 2.5859 3.1172 3.9187 1.4681.32181-.3982.59214-.8974.72589-1.1823.15058-.3208.31041-.6987.3917-.8772.06563-.144.17302-.451.32505-.8866.331-.9484.49902-1.5214.59637-2.7091.0713-.8698.01017-1.947-.16292-2.675-.10364-.4359-.22456-.8221-.35101-1.2161-.0235-.073-.047-.1464-.07051-.2196-.07647.01-.15294.016-.2294.024-1.2979.1382-3.2209-.3605-4.6514-1.0785-.23822-.1195-.47644-.2391-.71465-.3587"/><path transform="rotate(-90)" d="m-62.1 99.07a18.147 18.147 0 00-18.147-18.147 18.147 18.147 0 00-18.147 18.147 18.147 18.147 0 0018.147 18.147 18.147 18.147 0 0018.147-18.147zm-13.875-6.9164a3.0998 3.0998 0 01-3.0996 3.1001 3.0998 3.0998 0 01-3.1001-3.1001 3.0998 3.0998 0 013.1001-3.0996 3.0998 3.0998 0 013.0996 3.0996zm-.0279 14.003a3.0998 3.0998 0 01-3.0996 3.0996 3.0998 3.0998 0 01-3.0996-3.0996 3.0998 3.0998 0 013.0996-3.1001 3.0998 3.0998 0 013.0996 3.1001z"/><path transform="rotate(-90)" d="m-24.831 99.188a26.542 26.542 0 00-26.542-26.542 26.542 26.542 0 00-23.246 13.873h2.1234v25.4h-2.0898a26.542 26.542 0 0023.213 13.811 26.542 26.542 0 0026.542-26.542z"/></g><path d="m66.611 65.275c-1.2351.03664-2.5049.21495-3.8437.53899-2.3151.56036-4.4026 1.4411-5.9381 2.2464-1.493.78291-3.0765 2.0293-4.6116 3.4995-1.6484 1.5785-2.6879 2.8814-3.5972 4.2468-.80281 1.2055-1.9639 2.9611-2.9802 5.3351-1.1652 2.721-1.5983 5.7091-1.7932 7.691-.16707 1.7021-.19967 3.2832-.16278 4.9511.03688 1.6625-.03497 2.7076.22996 4.3873.95208 6.056 9.9422 5.1096 9.6113-1.0118-.14103-2.595-.04781-3.6054.07803-5.008.16056-1.8035.34238-4.3169 1.0113-6.1237.5535-1.4951 1.3805-3.2316 2.683-4.9971 1.7944-2.4318 3.7262-3.9388 6.7458-4.885 1.7304-.54228 3.1365-.70248 4.5377-.49764 1.403.20508 3.079.68942 4.1682 1.2774-1.3928 1.112-3.0886 2.6874-4.4054 4.499-1.4257 1.9611-2.6154 3.9082-3.3362 6.752-.67935 2.6797-.91696 5.5539-.61753 8.0119.34022 2.7919 1.4985 5.5417 2.619 7.6977.41536.7995.97872 1.6773 1.6128 2.56a10.062 10.062 0 017.783-6.5996c-.79189-1.3816-1.3148-2.8818-1.5617-4.1563-.26688-1.3781-.37255-2.585 0-4.2121.29053-1.2856.66492-2.2847.9958-2.9037.56153-1.0508 1.7987-2.6642 3.0262-3.4329.9395-.58815 1.8805-1.0579 2.6954-1.249-.33371-2.6725-.52088-3.0935-.26355-5.549.25733-2.4555 1.125-4.6204 1.125-4.6204-1.1773-.77126-2.8274-2.2649-4.285-3.8003-1.3435-1.4154-3.2218-2.8794-5.4844-3.6701-2.0215-.70647-3.9835-1.0388-6.042-.97772z" stroke-width=".27"/><path d="m131.42 65.209c1.2351.0366 2.5049.21494 3.8437.53898 2.3151.56037 4.4026 1.4411 5.9381 2.2464 1.493.78291 3.0765 2.0293 4.6116 3.4995 1.6484 1.5785 2.6879 2.8814 3.5972 4.2468.8028 1.2055 1.9639 2.9611 2.9802 5.3351 1.1652 2.721 1.5983 5.7091 1.7932 7.691.16707 1.7021.19966 3.2832.16278 4.9511-.0369 1.6625.035 2.7076-.22996 4.3873-.95209 6.056-9.9422 5.1096-9.6113-1.0118.14103-2.595.0478-3.6054-.078-5.008-.16056-1.8035-.34237-4.3169-1.0113-6.1237-.5535-1.4951-1.3805-3.2316-2.683-4.9971-1.7944-2.4318-3.7262-3.9388-6.7458-4.885-1.7304-.54228-3.1365-.70248-4.5377-.49764-1.403.20508-3.079.68941-4.1682 1.2774 1.3928 1.112 3.0886 2.6874 4.4054 4.499 1.4257 1.9611 2.6154 3.9082 3.3362 6.752.67935 2.6797.91696 5.5539.61753 8.0119-.34021 2.7919-1.4985 5.5417-2.619 7.6977-.41536.7995-.97872 1.6773-1.6128 2.56a10.062 10.062 0 00-7.783-6.5996c.79189-1.3816 1.3148-2.8818 1.5617-4.1563.26688-1.3781.37255-2.585 0-4.2121-.29053-1.2856-.66492-2.2847-.9958-2.9037-.56153-1.0508-1.7988-2.6642-3.0262-3.4329-.9395-.58815-1.8805-1.0579-2.6954-1.249.33371-2.6725.52089-3.0935.26355-5.549-.25733-2.4555-1.125-4.6204-1.125-4.6204 1.1773-.77126 2.8274-2.2649 4.285-3.8003 1.3435-1.4154 3.2218-2.8794 5.4844-3.6701 2.0215-.70646 3.9835-1.0388 6.042-.97771z" stroke-width=".27"/><path transform="matrix(0 -2.1697 2.1697 0 -2336.4 79.455)" d="m6.7574 1133.9c.11496.2545.22992.5091.34489.7636.36713.8127.58278 1.3103.93211 2.2733.31676.8731.3819 2.1076.27924 2.9529-.089191.7345-.34784 1.4318-.71248 2.1323-.29216.5613-.58668 1.3842-.61088 2.052-.082648 2.2199 2.7094 3.266 4.1057 1.5382.33717-.4172.62041-.9402.76053-1.2387.15776-.3362.32523-.7321.4104-.9191.06876-.1509.18128-.4725.34056-.9289.3468-.9937.52284-1.594.62483-2.8384.0747-.9113.01065-2.04-.1707-2.8027-.10858-.4567-.23528-.8613-.36777-1.2741-.02462-.076-.04924-.1534-.07387-.2301-.08012.01-.16024.017-.24036.025-1.3598.1448-3.3746-.3777-4.8734-1.13-.24959-.1252-.49918-.2505-.74876-.3758"/></g><g fill="#8564ff"><circle transform="rotate(-90)" cx="-109.91" cy="78.587" r="9.0411"/><circle transform="rotate(-90)" cx="-109.89" cy="119.49" r="9.0411"/><path d="m85.728 106.66c.25662.69601.62827 1.9364.65184 2.9352.02707 1.1472-.58524 3.3952-.58524 3.3952l26.489-.0361s-.66059-1.3947-.58284-3.3591c.0778-1.9644.39522-2.3114.64371-2.9713z"/><path d="m96.242 55.552-12.635-5.6166v-1.3576l12.635-5.6166v1.9707l-9.9632 4.3247 9.9632 4.3247zm18.503-5.6166-12.635 5.6166v-1.9707l9.9632-4.3247-9.9632-4.3247v-1.9707l12.635 5.6166z" display="none" stroke="#8564ff" stroke-width=".443" style="white-space:pre" aria-label="&lt;&gt;"/><path d="m94.028 58.037-9.0234-4.5117a1.6695 1.6695 0 01-.92281-1.4932v-1.4236a1.6695 1.6695 0 01.92281-1.4932l9.0234-4.5117a1.6695 1.6695 0 012.4161 1.4932v.72879a1.6695 1.6695 0 01-.92307 1.4932l-5.5763 2.7881a.2385.2385 0 000 .42664l5.5763 2.7881a1.6695 1.6695 0 01.92307 1.4932v.72879a1.6695 1.6695 0 01-2.4161 1.4932z"/><path d="m103.96 58.037 9.0235-4.5117a1.6695 1.6695 0 00.92282-1.4932v-1.4236a1.6695 1.6695 0 00-.92282-1.4932l-9.0235-4.5117a1.6695 1.6695 0 00-2.4161 1.4932v.72879a1.6695 1.6695 0 00.92307 1.4932l5.5763 2.7881a.2385.2385 0 010 .42664l-5.5763 2.7881a1.6695 1.6695 0 00-.92307 1.4932v.72879a1.6695 1.6695 0 002.4161 1.4932z"/></g><path d="m88.627 75.729c3.3283 1.4929 6.9742 2.2717 10.582 2.2717 3.6076 0 7.2535-.77879 10.582-2.2717z" fill="#282a36" style="paint-order:stroke fill markers"/></g></svg>
